# xmcd CD database file
#
# Track frame offsets:
#	150
#	20545
#	35467
#	55485
#	78420
#	97362
#	118912
#	137870
#	149550
#	169915
#	192227
#	203525
#
# Disc length: 3049 seconds
#
# Revision: 0
# Processed by: cddbd v1.5PL3 Copyright (c) Steve Scherf et al.
# Submitted via: CDex 1.51
#
DISCID=b60be70c
DTITLE=Dave Keller Blues Band - Down At The Aloha
DYEAR=2001
DGENRE=Blues
TTITLE0=Junebug
TTITLE1=It's A Struggle
TTITLE2=Glory
TTITLE3=Those Old Soul Singers
TTITLE4=Slipped The Hook
TTITLE5=Down At The Aloha
TTITLE6=Everything I Know
TTITLE7=The Kid
TTITLE8=Besides Our Love
TTITLE9=Water, Brings Us Back
TTITLE10=Jellyroll Bisque
TTITLE11=Superhero
EXTD=YEAR: 2001
EXTT0=
EXTT1=
EXTT2=
EXTT3=
EXTT4=
EXTT5=
EXTT6=
EXTT7=
EXTT8=
EXTT9=
EXTT10=
EXTT11=
PLAYORDER=
